<svg width="24" height="24" viewBox="0 0 24 24" fill="none" xmlns="http://www.w3.org/2000/svg">
<g clip-path="url(#clip0_320_4)">
<path fill-rule="evenodd" clip-rule="evenodd" d="M19.5 0H4.5C3.30661 0.00026511 2.16217 0.474456 1.31831 1.31831C0.474456 2.16217 0.00026511 3.30661 0 4.5L0 19.5C0 21.984 2.016 24 4.5 24H19.5C21.984 24 24 21.984 24 19.5V4.5C24 2.016 21.984 0 19.5 0ZM12 21C10.22 21 8.47991 20.4722 6.99987 19.4832C5.51983 18.4943 4.36627 17.0887 3.68508 15.4442C3.0039 13.7996 2.82567 11.99 3.17293 10.2442C3.5202 8.49836 4.37737 6.89471 5.63604 5.63604C6.89471 4.37737 8.49836 3.5202 10.2442 3.17293C11.99 2.82567 13.7996 3.0039 15.4442 3.68508C17.0887 4.36627 18.4943 5.51983 19.4832 6.99987C20.4722 8.47991 21 10.22 21 12C20.9947 14.3853 20.0448 16.6714 18.3581 18.3581C16.6714 20.0448 14.3853 20.9947 12 21ZM19.599 13.228C18.0413 12.7853 16.4076 12.677 14.805 12.91C15.4493 14.6929 15.9431 16.5266 16.281 18.392C17.1521 17.7977 17.8948 17.0343 18.4648 16.1472C19.0348 15.26 19.4205 14.2673 19.599 13.228ZM14.999 19.081C14.6344 17.0828 14.083 15.1232 13.352 13.228H13.304C9 14.754 7.427 17.755 7.279 18.025C8.62923 19.0773 10.2882 19.6561 12 19.672C13.03 19.682 14.05 19.482 15 19.081H14.999ZM6.296 17.164C6.444 16.894 8.582 13.377 12.542 12.097C12.642 12.0495 12.7513 12.0246 12.862 12.024C12.664 11.582 12.467 11.139 12.222 10.696C9.65065 11.4461 6.98234 11.8111 4.304 11.779V12.022C4.31103 13.9224 5.02052 15.7532 6.296 17.162V17.164ZM4.476 10.451C6.87278 10.4268 9.25843 10.1214 11.584 9.541C10.7237 8.01409 9.77925 6.53614 8.755 5.114C7.66746 5.59733 6.71148 6.33407 5.96704 7.26259C5.22259 8.1911 4.71132 9.28439 4.476 10.451ZM10.205 4.574C11.2478 6.01012 12.2083 7.50418 13.082 9.049C15.787 8.016 16.974 6.493 17.115 6.296C15.7187 5.05672 13.9159 4.37345 12.049 4.376C11.4273 4.32536 10.8017 4.39253 10.205 4.574ZM17.95 7.154C17.777 7.352 16.524 9.023 13.671 10.204C13.844 10.574 14.041 10.918 14.187 11.312C14.235 11.436 14.311 11.582 14.359 11.706C16.146 11.523 17.949 11.606 19.711 11.949C19.6742 10.1995 19.0545 8.51231 17.95 7.155V7.154Z" fill="#E2E8F0"/>
</g>
<defs>
<clipPath id="clip0_320_4">
<rect width="24" height="24" fill="white"/>
</clipPath>
</defs>
</svg>
