<svg width="24" height="24" viewBox="0 0 24 24" fill="none" xmlns="http://www.w3.org/2000/svg">
<g clip-path="url(#clip0_320_6)">
<path fill-rule="evenodd" clip-rule="evenodd" d="M19.5 0H4.5C3.30661 0.00026511 2.16217 0.474456 1.31831 1.31831C0.474456 2.16217 0.00026511 3.30661 0 4.5L0 19.5C0 21.984 2.016 24 4.5 24H12.813V14.703H9.687V11.078H12.813V8.406C12.813 5.312 14.719 3.625 17.484 3.625C18.797 3.625 19.937 3.719 20.266 3.765V7L18.359 7.016C16.844 7.016 16.562 7.719 16.562 8.766V11.078H20.141L19.671 14.703H16.563V24H19.5C21.984 24 24 21.984 24 19.5V4.5C24 2.016 21.984 0 19.5 0Z" fill="#E2E8F0"/>
</g>
<defs>
<clipPath id="clip0_320_6">
<rect width="24" height="24" fill="white"/>
</clipPath>
</defs>
</svg>
