<svg width="24" height="24" viewBox="0 0 24 24" fill="none" xmlns="http://www.w3.org/2000/svg">
<g clip-path="url(#clip0_320_8)">
<path fill-rule="evenodd" clip-rule="evenodd" d="M12 9.024C11.6092 9.024 11.2222 9.10098 10.8611 9.25053C10.5001 9.40009 10.172 9.6193 9.89565 9.89565C9.6193 10.172 9.40009 10.5001 9.25053 10.8611C9.10098 11.2222 9.024 11.6092 9.024 12C9.024 12.3908 9.10098 12.7778 9.25053 13.1389C9.40009 13.4999 9.6193 13.828 9.89565 14.1044C10.172 14.3807 10.5001 14.5999 10.8611 14.7495C11.2222 14.899 11.6092 14.976 12 14.976C12.7893 14.976 13.5462 14.6625 14.1044 14.1044C14.6625 13.5462 14.976 12.7893 14.976 12C14.976 11.2107 14.6625 10.4538 14.1044 9.89565C13.5462 9.33754 12.7893 9.024 12 9.024ZM23.916 6.084C23.9097 5.15731 23.739 4.23909 23.412 3.372C23.1711 2.73751 22.7985 2.16131 22.3186 1.68142C21.8387 1.20153 21.2625 0.828861 20.628 0.588C19.7609 0.260957 18.8427 0.0903132 17.916 0.084C16.368 0 15.912 0 12 0C8.088 0 7.632 0 6.084 0.084C5.15731 0.0903132 4.23909 0.260957 3.372 0.588C2.73751 0.828861 2.16131 1.20153 1.68142 1.68142C1.20153 2.16131 0.828861 2.73751 0.588 3.372C0.260957 4.23909 0.0903132 5.15731 0.084 6.084C0 7.632 0 8.088 0 12C0 15.912 0 16.368 0.084 17.916C0.097 18.846 0.267 19.767 0.588 20.64C0.828 21.272 1.2 21.844 1.68 22.32C2.15783 22.8028 2.73527 23.1754 3.372 23.412C4.23909 23.739 5.15731 23.9097 6.084 23.916C7.632 24 8.088 24 12 24C15.912 24 16.368 24 17.916 23.916C18.8427 23.9097 19.7609 23.739 20.628 23.412C21.2647 23.1754 21.8422 22.8028 22.32 22.32C22.7998 21.8444 23.1722 21.2716 23.412 20.64C23.7387 19.7687 23.9093 18.8466 23.916 17.916C24 16.368 24 15.912 24 12C24 8.088 24 7.632 23.916 6.084ZM20.868 15.684C20.8295 16.4245 20.6714 17.1539 20.4 17.844C20.167 18.4196 19.8207 18.9425 19.3816 19.3816C18.9425 19.8207 18.4196 20.167 17.844 20.4C17.1474 20.6563 16.4139 20.7981 15.672 20.82H8.328C7.58608 20.7981 6.85259 20.6563 6.156 20.4C5.56092 20.1789 5.02353 19.8261 4.584 19.368C4.149 18.938 3.814 18.418 3.6 17.844C3.34267 17.1481 3.20473 16.4138 3.192 15.672V8.328C3.205 7.586 3.342 6.852 3.6 6.156C3.82114 5.56092 4.17393 5.02353 4.632 4.584C5.0644 4.15155 5.58392 3.81611 6.156 3.6C6.85259 3.34369 7.58608 3.20185 8.328 3.18H15.672C16.4139 3.20185 17.1474 3.34369 17.844 3.6C18.4391 3.82114 18.9765 4.17393 19.416 4.632C19.851 5.062 20.186 5.582 20.4 6.156C20.656 6.853 20.798 7.586 20.82 8.328V12C20.82 14.472 20.904 14.724 20.868 15.672V15.684ZM18.948 6.756C18.8051 6.36838 18.5799 6.01637 18.2877 5.72426C17.9956 5.43214 17.6436 5.20688 17.256 5.064C16.7238 4.87951 16.1632 4.79015 15.6 4.8H8.4C7.83392 4.80553 7.27328 4.91116 6.744 5.112C6.36231 5.24839 6.01403 5.46446 5.7223 5.74584C5.43057 6.02723 5.20207 6.36749 5.052 6.744C4.87773 7.27844 4.79259 7.83791 4.8 8.4V15.6C4.812 16.165 4.917 16.725 5.112 17.256C5.402 18.04 6.02 18.659 6.804 18.948C7.316 19.136 7.854 19.242 8.4 19.26H15.6C16.1661 19.2545 16.7267 19.1488 17.256 18.948C17.6436 18.8051 17.9956 18.5799 18.2877 18.2877C18.5799 17.9956 18.8051 17.6436 18.948 17.256C19.1488 16.7267 19.2545 16.1661 19.26 15.6V8.4C19.26 7.833 19.155 7.272 18.948 6.744V6.756ZM12 16.584C11.3986 16.584 10.8031 16.4653 10.2476 16.2348C9.69211 16.0043 9.18756 15.6665 8.76286 15.2407C8.33815 14.8148 8.00163 14.3094 7.77257 13.7533C7.54351 13.1972 7.42642 12.6014 7.428 12C7.428 11.0929 7.69716 10.2061 8.20138 9.45202C8.70561 8.69793 9.42225 8.1104 10.2606 7.7638C11.0989 7.4172 12.0212 7.32713 12.9107 7.50498C13.8003 7.68283 14.617 8.1206 15.2576 8.76289C15.8982 9.40517 16.3339 10.2231 16.5094 11.1131C16.6849 12.0031 16.5924 12.9251 16.2436 13.7626C15.8948 14.6 15.3054 15.315 14.55 15.8173C13.7946 16.3195 12.9071 16.5864 12 16.584ZM16.8 8.316C16.5347 8.28792 16.2892 8.16266 16.1108 7.96436C15.9324 7.76606 15.8337 7.50875 15.8337 7.242C15.8337 6.97525 15.9324 6.71794 16.1108 6.51964C16.2892 6.32133 16.5347 6.19608 16.8 6.168C17.0653 6.19608 17.3108 6.32133 17.4892 6.51964C17.6676 6.71794 17.7663 6.97525 17.7663 7.242C17.7663 7.50875 17.6676 7.76606 17.4892 7.96436C17.3108 8.16266 17.0653 8.28792 16.8 8.316Z" fill="#E2E8F0"/>
</g>
<defs>
<clipPath id="clip0_320_8">
<rect width="24" height="24" fill="white"/>
</clipPath>
</defs>
</svg>
