<svg width="24" height="24" viewBox="0 0 24 24" fill="none" xmlns="http://www.w3.org/2000/svg">
<g clip-path="url(#clip0_320_2)">
<path fill-rule="evenodd" clip-rule="evenodd" d="M3.703 20.094V9.25H7.313V20.094H3.703ZM7.547 5.906C7.547 6.938 6.766 7.781 5.5 7.781H5.484C4.266 7.781 3.484 6.938 3.484 5.906C3.484 4.844 4.297 4.031 5.531 4.031C6.766 4.031 7.531 4.844 7.547 5.906ZM16.687 20.094V14.297C16.687 12.828 16.172 11.844 14.875 11.844C13.875 11.844 13.281 12.516 13.015 13.156C12.922 13.391 12.906 13.719 12.906 14.031V20.094H9.296C9.344 10.266 9.296 9.25 9.296 9.25H12.906V10.828H12.875C13.344 10.078 14.203 9 16.141 9C18.516 9 20.297 10.547 20.297 13.875V20.094H16.687ZM24 4.5C24 2.016 21.984 0 19.5 0H4.5C3.30661 0.00026511 2.16217 0.474456 1.31831 1.31831C0.474456 2.16217 0.00026511 3.30661 0 4.5L0 19.5C0 21.984 2.016 24 4.5 24H19.5C21.984 24 24 21.984 24 19.5V4.5Z" fill="#E2E8F0"/>
</g>
<defs>
<clipPath id="clip0_320_2">
<rect width="24" height="24" fill="white"/>
</clipPath>
</defs>
</svg>
